PathFileType	4	(X/Y/Z)	C:/Users/beibeiliu/ov580/test_trc/User2\sequence.24_training_dense_left.trc
DataRate	CameraRate	NumFrames	NumMarkers	Units	OrigDataRate	OrigDataStartFrame	OrigNumFrames
120	120	13	19	mm	120	57	451
Frame#	Time	ThumbCMC			ThumbMCP			ThumbIP			ThumbTip			IndexMCP			IndexPIP			IndexTip			MiddleMCP			MiddlePIP			MiddleTip			RingMCP			RingPIP			RingTip			PinkyMCP			PinkyPIP			PinkyTip			BackHand1			BackHand2			BackHand3	
		X0	Y0	Z0	X1	Y1	Z1	X2	Y2	Z2	X3	Y3	Z3	X4	Y4	Z4	X5	Y5	Z5	X6	Y6	Z6	X7	Y7	Z7	X8	Y8	Z8	X9	Y9	Z9	X10	Y10	Z10	X11	Y11	Z11	X12	Y12	Z12	X13	Y13	Z13	X14	Y14	Z14	X15	Y15	Z15	X16	Y16	Z16	X17	Y17	Z17	X18	Y18	Z18	
56	0.466667	-167.169	-1.18767	80.7904	-132.594	-3.36035	65.4171	-107.066	-23.6744	47.6567	-93.6718	-45.0643	40.0813	-157.697	-29.873	7.94696	-146.791	-34.9195	-16.3962	-138.518	-42.1868	-39.217	-157.35	-51.9886	2.92254	-143.206	-58.7436	-24.9842	-130.347	-68.1744	-51.2474	-134.157	-70.8812	28.0912	-101.734	-67.1123	40.388	-115.669	-49.5452	68.3392	-133.018	-82.5735	51.7534	-105.841	-70.2291	66.4916	-125.89	-56.6971	92.5027	-184.797	-67.6588	59.4715	-208.722	-58.9573	88.5216	-194.311	-25.4587	62.6271	
57	0.475	-180.217	0.113686	81.2849	-146.941	5.04747	64.8688	-116.917	-13.4235	48.2589	-99.3753	-29.3414	42.0505	-158.564	-28.9175	4.8786	-147.108	-35.7515	-17.4479	-136.437	-40.904	-41.8085	-154.28	-52.3061	3.95598	-140.374	-55.7595	-19.6585	-122.783	-62.5275	-50.4514	-124.246	-61.7942	27.2664	-97.646	-49.269	38.4874	-110.746	-35.4745	66.7356	-123.24	-73.52	54.3207	-100.477	-53.1788	72.2899	-122.068	-41.7044	93.6864	-179.456	-67.8481	63.8047	-204.902	-60.601	85.4857	-200.318	-32.2999	62.3937	
58	0.483333	-191.031	2.66675	76.2516	-157.68	9.68677	60.7394	-126.55	1.71611	45.9851	-103.557	-14.8512	38.5589	-162.747	-28.6478	6.06809	-149.676	-32.8518	-17.4396	-135.754	-39.3363	-45.0088	-152.136	-50.2014	6.1658	-134.211	-51.6165	-24.4281	-119.044	-55.6245	-50.6756	-124.485	-54.995	28.7764	-97.473	-36.4165	37.999	-110.841	-21.7167	64.7786	-117.684	-63.1177	54.5911	-101.251	-37.8045	68.2189	-126.359	-29.9268	91.5064	-175.558	-64.7457	59.5476	-200.739	-66.5604	86.9477	-201.344	-38.4702	58.8671	
59	0.491667	-200.585	-0.268954	74.0341	-168.353	12.0593	57.5093	-135.621	7.56012	43.7731	-111.098	-5.99872	39.1034	-164.929	-27.8074	0.250778	-152.33	-28.6861	-23.9529	-138.153	-34.9625	-41.668	-149.128	-48.6221	2.93358	-135.065	-46.6635	-21.0818	-115.061	-51.0501	-46.3276	-120.918	-46.3508	27.2557	-101.249	-22.2185	35.9469	-117.188	-10.705	67.4795	-117.826	-53.6005	56.3004	-104.467	-23.7755	71.5586	-128.14	-21.1934	88.1866	-172.76	-69.2144	64.8404	-196.668	-72.3004	85.9087	-204.606	-40.8146	56.1361	
60	0.5	-208.652	-5.65371	71.2409	-179.838	10.991	54.5386	-142.179	10.3788	39.0679	-120.302	1.10169	37.9082	-167.967	-29.3291	5.9841	-153.437	-31.3514	-19.0398	-135.95	-35.5187	-44.8637	-151.078	-43.679	3.13246	-132.919	-43.1628	-18.8983	-115.236	-42.5032	-49.609	-121.969	-40.5228	28.2727	-102.521	-15.0829	36.4629	-120.481	-0.975584	62.5588	-117.591	-43.7763	55.8583	-106.311	-15.3636	69.6059	-130.785	-10.4647	90.4594	-168.49	-65.8787	60.8593	-195.239	-72.8093	86.8324	-200.951	-48.4473	58.6965	
61	0.508333	-213.095	-10.3921	68.7682	-187.361	10.6392	51.4095	-152.588	14.2236	38.4269	-124.307	6.93713	34.3939	-167.796	-32.3597	6.50096	-153.244	-32.6691	-19.601	-139.891	-31.9599	-44.4424	-148.848	-43.1782	2.97528	-129.853	-41.313	-21.546	-113.442	-39.4315	-47.6498	-121.852	-38.0551	31.2493	-107.214	-8.38013	34.3015	-124.777	3.03985	65.1153	-114.181	-38.4973	56.8895	-111.359	-6.74371	69.0727	-137.083	-6.64743	87.1638	-164.722	-66.2145	62.7402	-189.543	-74.3302	85.654	-206.375	-51.4224	56.5676	
62	0.516667	-217.154	-15.1274	69.2197	-191.234	6.53128	48.5782	-160.534	12.7962	38.495	-130.682	6.85977	34.1652	-169.052	-33.4114	2.57652	-156.613	-32.6795	-19.5	-137.06	-32.8636	-44.1904	-150.332	-43.2893	4.98661	-132.546	-38.7258	-23.0891	-112.857	-39.2307	-45.0421	-122.967	-33.8805	29.4349	-111.702	-5.05719	31.0398	-131.369	6.6152	62.9258	-117.915	-34.911	56.6952	-114.947	-2.69677	68.0745	-141.989	-2.84016	89.2289	-169.448	-67.697	64.9728	-190.462	-75.0425	86.1035	-204.087	-54.7641	57.3959	
63	0.525	-218.117	-19.1923	68.2841	-196.835	4.7083	48.2166	-164.107	11.4372	36.4648	-135.332	8.05728	34.2551	-171.401	-34.1288	2.73681	-156.108	-33.1922	-22.4457	-140.041	-31.9095	-45.9173	-149.311	-44.0742	3.60257	-134.653	-38.9286	-20.5235	-116.495	-34.8822	-47.4571	-127.86	-33.5837	29.607	-116.026	-1.74797	31.5499	-133.877	8.02983	60.9444	-122.737	-33.7831	55.3586	-117.71	-0.824387	66.9193	-147.259	-1.78485	84.5864	-168.797	-66.5134	63.4956	-187.009	-81.0004	89.0554	-204.091	-57.9945	54.3787	
64	0.533333	-217.524	-22.9929	67.0107	-201.136	5.06446	48.8646	-163.616	12.9733	32.087	-138.942	10.3654	34.0602	-170.828	-35.4209	0.491938	-156.998	-33.4301	-24.4913	-144.728	-30.6336	-44.9848	-152.863	-43.6147	2.183	-133.403	-38.4451	-23.3583	-115.528	-35.3564	-48.0957	-125.273	-31.2568	27.6978	-116.748	-0.455686	31.0964	-139.492	9.24582	59.49	-123.862	-29.4881	53.8647	-121.753	2.39464	65.1021	-145.284	0.102727	87.6773	-166.34	-67.5593	63.5863	-186.587	-78.5231	87.592	-203.915	-57.6457	56.0252	
65	0.541667	-219.179	-22.6742	66.6444	-198.766	2.37137	45.0475	-169.478	13.5159	35.1549	-140.793	11.4197	31.3063	-175.85	-35.4033	3.37394	-157.963	-33.4203	-23.0202	-142.707	-32.5168	-47.4076	-153.835	-43.2832	1.60887	-133.191	-39.1	-22.0755	-116.508	-36.9823	-44.1312	-130.085	-27.7033	25.436	-120.341	1.96783	31.8446	-139.683	9.16758	60.6618	-123.176	-26.1889	52.6357	-121.761	2.50422	67.0064	-151.156	0.841226	83.2375	-167.838	-67.0182	65.1529	-183.739	-80.8371	85.5837	-203.116	-61.239	57.1391	
66	0.55	-221.204	-21.9476	65.8461	-203.429	3.96536	45.0977	-168.883	12.4627	32.0902	-140.776	12.6695	28.1496	-178.017	-35.4411	2.839	-162.149	-33.8771	-22.7712	-146.172	-32.202	-47.1822	-152.67	-44.8487	1.78877	-140.377	-39.0331	-20.8128	-117.916	-35.5719	-47.7913	-129.481	-28.7374	25.9383	-117.827	0.71412	31.7125	-139.52	10.9829	57.1738	-123.611	-31.135	54.2382	-124.284	1.6124	63.2791	-147.328	-0.485797	86.3887	-169.446	-68.3838	63.7432	-184.914	-79.0124	86.4283	-205.394	-61.7417	56.8047	
67	0.558333	-222.452	-22.3865	64.6708	-203.381	3.30868	45.9991	-168.777	13.0287	29.8799	-140.394	8.0315	30.3755	-175.395	-36.58	3.16329	-162.977	-33.606	-21.9346	-148.678	-33.1905	-46.0925	-153.028	-44.757	3.67214	-136.617	-39.6224	-22.5802	-118.742	-37.2206	-45.6389	-130.36	-30.9872	25.5168	-120.41	0.613103	31.0675	-141.238	9.33053	57.402	-121.686	-28.2398	52.4741	-124.347	2.34439	65.1022	-151.202	-3.44461	84.2051	-168.582	-70.0471	63.0693	-186.238	-78.2233	85.1915	-205.298	-61.0556	56.4977	
68	0.566667	-222.499	-21.8342	66.2532	-202.618	4.08016	45.4993	-170.492	10.2181	33.2383	-140.079	8.91704	29.4455	-175.495	-36.5478	-0.467521	-160.664	-35.7264	-26.084	-145.207	-35.6816	-45.1281	-153.298	-46.8824	2.5715	-136.775	-41.5125	-20.1255	-121.785	-37.5966	-46.5512	-132.565	-34.1098	24.8624	-118.818	-3.58866	28.5029	-134.949	8.2283	56.9967	-120.37	-33.285	52.8087	-123.317	-0.0775115	61.6964	-149.038	-1.96676	80.2339	-167.873	-68.9523	60.2638	-186.027	-82.4186	85.9737	-203.682	-60.6422	56.7022	
